<!-- Generator: Adobe Illustrator 19.0.0, SVG Export Plug-In  -->
<svg version="1.1"
	 xmlns="http://www.w3.org/2000/svg" xmlns:xlink="http://www.w3.org/1999/xlink" xmlns:a="http://ns.adobe.com/AdobeSVGViewerExtensions/3.0/"
	 x="0px" y="0px" width="255.096px" height="255.096px" viewBox="0 0 255.096 255.096"
	 style="enable-background:new 0 0 255.096 255.096;" xml:space="preserve">
<style type="text/css">
	.st0{fill:#29AAE2;}
	.st1{fill:#FFFFFF;}
</style>
<defs>
</defs>
<g>
	<path class="st0" d="M218.625,255.096H36.471C16.328,255.096,0,238.768,0,218.625V36.471C0,16.328,16.328,0,36.471,0h182.155
		c20.142,0,36.471,16.328,36.471,36.471v182.155C255.096,238.768,238.768,255.096,218.625,255.096z"/>
	<path class="st1" d="M213.942,74.056c-5.605,0.597-10.669,3.956-17.335,3.602c5.475-5.71,11.213-10.36,13.016-18.859
		c-5.991,3.426-11.516,5.509-17.132,7.418c-3.464,1.178-5.896,0.615-8.773-1.832c-14.699-12.501-38.501-10.039-50.607,4.716
		c-6.19,7.545-8.971,16.018-8.232,25.625c0.318,4.126-1.177,5.493-5.233,5.143c-8.217-0.709-16.164-2.567-23.879-5.336
		c-17.574-6.307-32.182-16.97-44.846-31.633c-8.685,18.539-4.762,33.944,9.462,47.591c-4.137-0.24-7.658-0.751-10.907-2.284
		c-2.606-1.229-3.907-0.944-3.435,2.296c1.407,9.66,5.433,17.828,13.123,24.127c3.803,3.115,8.316,4.937,13.266,7.524
		c-3.501,1.413-6.356,1.995-9.182,1.479c-5.368-0.981-3.897,1.719-2.497,4.343c5.753,10.783,14.56,17.384,26.722,19.323
		c0.974,0.155,2.272-0.168,2.696,0.979c0.579,1.566-0.958,2.008-1.887,2.579c-10.836,6.658-22.11,12.079-35.225,12.124
		c-3.834,0.013-7.667,0.002-11.929,0.002c1.299,2.827,3.344,3.427,5.084,4.305c18.44,9.307,37.886,12.83,58.52,10.989
		c24.714-2.205,45.888-11.817,62.894-29.719c17.791-18.728,27.557-41.254,28.871-67.199c0.312-6.167,1.405-11.417,7.157-15.329
		c4.3-2.924,7.461-7.449,10.309-11.953L213.942,74.056z"/>
</g>
</svg>