<?xml version="1.0" encoding="utf-8"?>
<!-- Generator: Adobe Illustrator 18.0.0, SVG Export Plug-In . SVG Version: 6.00 Build 0)  -->
<!DOCTYPE svg PUBLIC "-//W3C//DTD SVG 1.1//EN" "http://www.w3.org/Graphics/SVG/1.1/DTD/svg11.dtd">
<svg version="1.1" id="Capa_1" xmlns="http://www.w3.org/2000/svg" xmlns:xlink="http://www.w3.org/1999/xlink" x="0px" y="0px"
	 viewBox="245.9 46.1 467.8 467.9" enable-background="new 245.9 46.1 467.8 467.9" xml:space="preserve">
<g>
	<g>
		<g>
			<path fill="#FFFFFF" d="M519.3,105.4c5.5,0,10.4,1.7,14.6,4.5l9.8-9.8l-52.5-52.5l-0.1-0.1c-0.8-0.8-2-1.4-3.4-1.4
				c-1.3,0-2.5,0.6-3.4,1.4l-0.1,0.1l-52.5,52.5l16.1,15.8c-5.6,3.1-9.2,9-9.2,15.7c0,9.8,8,17.8,17.8,17.8c6.7,0,12.6-3.8,15.7-9.2
				l15.8,15.8l9.8-9.8c-2.8-4.2-4.5-9.2-4.5-14.6C493.2,117,504.8,105.4,519.3,105.4z"/>
		</g>
		<path fill="#FFFFFF" d="M603.3,159.7L603.3,159.7l-52.6-52.6l-15.8,15.8c-3.1-5.6-9-9.2-15.7-9.2c-9.8,0-17.8,8-17.8,17.8
			c0,6.7,3.8,12.6,9.2,15.7L494.8,163l9.8,9.8c4.2-2.8,9.2-4.5,14.6-4.5c14.4,0,26.2,11.8,26.2,26.2c0,5.5-1.7,10.4-4.5,14.6
			l9.8,9.8l52.5-52.5l0.1-0.1c0.8-0.8,1.4-2,1.4-3.4C604.7,161.7,604.2,160.6,603.3,159.7z"/>
		<g>
			<path fill="#FFFFFF" d="M527.9,210.3c5.6-3.1,9.2-9,9.2-15.7c0-9.8-8-17.8-17.8-17.8c-6.7,0-12.6,3.8-15.7,9.2l-15.8-15.8
				L478,180c2.8,4.2,4.5,9.2,4.5,14.6c0,14.4-11.8,26.2-26.2,26.2c-5.5,0-10.4-1.7-14.6-4.5l-9.8,9.8l52.5,52.5l0.1,0.1
				c0.8,0.8,2,1.4,3.4,1.4c1.3,0,2.5-0.6,3.4-1.4l0.1-0.1l52.5-52.5L527.9,210.3z"/>
		</g>
		<g>
			<path fill="#FFFFFF" d="M470.9,153.3c-4.2,2.8-9.2,4.5-14.6,4.5c-14.4,0-26.2-11.8-26.2-26.2c0-5.5,1.7-10.4,4.5-14.6l-9.8-9.8
				l-52.6,52.4v0.1c-0.8,0.8-1.4,2-1.4,3.4c0,1.3,0.6,2.5,1.4,3.4v0.1l52.5,52.5l15.8-15.8c3.1,5.6,9,9.2,15.7,9.2
				c9.8,0,17.8-8,17.8-17.8c0-6.7-3.8-12.6-9.2-15.7l15.8-15.8L470.9,153.3z"/>
		</g>
	</g>
	<g>
		<g>
			<path fill="#FFFFFF" d="M336.2,398.3h-51.4l-9,22.3c-2.2,5.5-3.4,9.5-3.4,12.3c0,2.1,1,4.1,2.9,5.7c2,1.7,6,2.7,12.5,3.2v3.9
				h-41.9v-3.9c5.6-1,9.1-2.4,10.8-4.1c3.4-3.4,7-10.1,11.1-20.3l46.6-116.1h3.4L364,418.6c3.8,9.4,7.1,15.5,10.1,18.3
				c3.1,2.8,7.3,4.3,12.6,4.8v3.9h-52.2v-3.9c5.3-0.3,8.8-1.3,10.8-2.8c1.8-1.5,2.8-3.5,2.8-5.9c0-3.1-1.3-7.8-3.9-14.4L336.2,398.3
				z M333.4,390.6l-22.5-57l-23,57H333.4z"/>
			<path fill="#FFFFFF" d="M481.1,445.6l-51.2-118.7v94.2c0,8.7,0.8,14.1,2.7,16.2c2.4,2.9,6.3,4.3,11.5,4.3h4.8v3.9h-46.2v-3.9h4.8
				c5.6,0,9.5-1.8,11.9-5.5c1.4-2.2,2.1-7.3,2.1-15.3v-92c0-6.3-0.7-10.8-2-13.6c-1-2-2.5-3.6-5-5c-2.4-1.4-6.3-2.1-11.8-2.1v-3.9
				h37.5l48.2,110.5l47.3-110.5h37.5v3.9h-4.6c-5.6,0-9.7,1.8-12,5.5c-1.4,2.2-2.1,7.3-2.1,15.1V421c0,8.7,1,14.1,2.8,16.2
				c2.4,2.9,6.2,4.3,11.5,4.3h4.6v3.9H517v-3.9h4.8c5.7,0,9.7-1.8,11.9-5.5c1.4-2.2,2.1-7.3,2.1-15.3v-94.2l-51.1,118.7h-3.5
				L481.1,445.6L481.1,445.6z"/>
			<path fill="#FFFFFF" d="M707.8,301.3l3.1,48h-3.1c-4.1-14.3-9.8-24.6-17.4-30.9c-7.6-6.3-16.5-9.5-27-9.5
				c-8.8,0-16.8,2.4-23.9,7.1s-12.7,12.3-16.8,22.7c-4.1,10.4-6.2,23.4-6.2,38.8c0,12.7,2,23.8,5.7,33.2c3.8,9.4,9.7,16.5,17.4,21.6
				s16.5,7.4,26.5,7.4c8.7,0,16.2-2,22.8-5.9s13.9-11.8,21.7-23.4l3.1,2.1c-6.7,12.6-14.4,21.7-23.2,27.6s-19.5,8.7-31.6,8.7
				c-22,0-38.9-8.7-51.1-26c-9-12.9-13.4-28.1-13.4-45.6c0-14.1,2.9-27,9-38.8c5.9-11.8,14.1-20.9,24.5-27.4
				c10.4-6.4,21.7-9.8,34-9.8c9.5,0,19,2.5,28.4,7.6c2.8,1.5,4.8,2.2,5.9,2.2c1.8,0,3.4-0.7,4.6-2c1.7-1.8,2.9-4.5,3.6-7.8
				L707.8,301.3L707.8,301.3L707.8,301.3z"/>
		</g>
		<g>
			<path fill="#FFFFFF" d="M254.2,472.6c2.2-0.4,5.9-0.8,9.7-0.8c5.3,0,8.7,1,11.2,2.9c2.1,1.5,3.4,4.1,3.4,7.3
				c0,3.9-2.7,7.4-6.9,9.1v0.1c3.9,1,8.4,4.2,8.4,10.4c0,3.5-1.4,6.2-3.5,8.3c-2.8,2.7-7.4,3.9-14.1,3.9c-3.6,0-6.4-0.3-8.3-0.6
				v-40.6H254.2z M259.5,489.4h4.8c5.6,0,8.8-2.9,8.8-6.9c0-4.9-3.6-6.7-9-6.7c-2.4,0-3.8,0.1-4.6,0.4L259.5,489.4L259.5,489.4z
				 M259.5,509.2c1,0.1,2.5,0.3,4.5,0.3c5.5,0,10.5-2,10.5-8c0-5.6-4.8-8-10.5-8h-4.3v15.7H259.5z"/>
			<path fill="#FFFFFF" d="M322.8,472.1v24.4c0,9.2,4.1,13.2,9.5,13.2c6,0,9.9-4.1,9.9-13.2v-24.4h5.3v24.1
				c0,12.6-6.6,17.8-15.5,17.8c-8.4,0-14.7-4.9-14.7-17.6v-24.2L322.8,472.1L322.8,472.1z"/>
			<path fill="#FFFFFF" d="M386.3,506.8c2.4,1.4,5.9,2.7,9.5,2.7c5.5,0,8.5-2.9,8.5-7c0-3.9-2.2-6-7.7-8.1
				c-6.7-2.4-10.8-5.9-10.8-11.6c0-6.4,5.3-11.2,13.3-11.2c4.2,0,7.3,1,9.1,2l-1.4,4.3c-1.4-0.7-4.1-2-7.7-2c-5.6,0-7.7,3.4-7.7,6.2
				c0,3.9,2.5,5.7,8.1,8c6.9,2.7,10.5,6,10.5,12c0,6.3-4.6,11.9-14.3,11.9c-3.9,0-8.3-1.1-10.5-2.7L386.3,506.8z"/>
			<rect x="447.4" y="472.1" fill="#FFFFFF" width="5.3" height="41.2"/>
			<path fill="#FFFFFF" d="M492.3,513.2V472h5.7l13.2,20.9c3.1,4.9,5.5,9.2,7.3,13.4h0.1c-0.6-5.5-0.6-10.5-0.6-16.9v-17.2h5v41.2
				h-5.3l-13-20.9c-2.8-4.6-5.6-9.2-7.7-13.7h-0.1c0.3,5.2,0.4,10.1,0.4,16.9v17.6L492.3,513.2L492.3,513.2z"/>
			<polygon fill="#FFFFFF" points="583.7,493.9 567.9,493.9 567.9,508.8 585.6,508.8 585.6,513.2 562.6,513.2 562.6,472.1 
				584.7,472.1 584.7,476.6 567.9,476.6 567.9,489.4 583.7,489.4 			"/>
			<path fill="#FFFFFF" d="M622.1,506.8c2.4,1.4,5.9,2.7,9.5,2.7c5.5,0,8.5-2.9,8.5-7c0-3.9-2.2-6-7.7-8.1
				c-6.7-2.4-10.8-5.9-10.8-11.6c0-6.4,5.3-11.2,13.3-11.2c4.2,0,7.3,1,9.1,2l-1.4,4.3c-1.4-0.7-4.1-2-7.8-2c-5.6,0-7.7,3.4-7.7,6.2
				c0,3.9,2.5,5.7,8.1,8c6.9,2.7,10.5,6,10.5,12c0,6.3-4.6,11.9-14.3,11.9c-3.9,0-8.3-1.1-10.5-2.7L622.1,506.8z"/>
			<path fill="#FFFFFF" d="M682.4,506.8c2.4,1.4,5.9,2.7,9.5,2.7c5.5,0,8.5-2.9,8.5-7c0-3.9-2.2-6-7.7-8.1
				c-6.7-2.4-10.8-5.9-10.8-11.6c0-6.4,5.3-11.2,13.3-11.2c4.2,0,7.3,1,9.1,2l-1.4,4.3c-1.4-0.7-4.1-2-7.8-2c-5.6,0-7.7,3.4-7.7,6.2
				c0,3.9,2.5,5.7,8.1,8c6.9,2.7,10.5,6,10.5,12c0,6.3-4.6,11.9-14.3,11.9c-3.9,0-8.3-1.1-10.5-2.7L682.4,506.8z"/>
		</g>
	</g>
</g>
</svg>
