<!-- Generator: Adobe Illustrator 19.0.0, SVG Export Plug-In  -->
<svg version="1.1"
	 xmlns="http://www.w3.org/2000/svg" xmlns:xlink="http://www.w3.org/1999/xlink" xmlns:a="http://ns.adobe.com/AdobeSVGViewerExtensions/3.0/"
	 x="0px" y="0px" width="256px" height="256px" viewBox="0 0 256 256" style="enable-background:new 0 0 256 256;"
	 xml:space="preserve">
<style type="text/css">
	.st0{fill:#3D5A99;}
	.st1{fill:#FEFEFE;}
</style>
<defs>
</defs>
<g>
	<path class="st0" d="M0,233C0,163,0,93,0,23c0.235,0.157,0.541,0.493,0.688,0.434c0.275-0.111,0.563-0.414,0.663-0.701
		C5.039,12.161,12.158,5.04,22.73,1.345C23.318,1.14,23.863,0.638,23,0c70,0,140,0,210,0c-0.16,0.234-0.5,0.538-0.441,0.686
		c0.108,0.276,0.411,0.568,0.697,0.668c10.587,3.689,17.705,10.824,21.397,21.41c0.208,0.596,0.732,1.111,1.348,0.237c0,1,0,2,0,3
		c-0.211,0.028-0.422,0.055-0.634,0.083c0.211,0.306,0.422,0.612,0.634,0.917c0,68.667,0,137.333,0,206
		c-0.231-0.166-0.529-0.513-0.678-0.458c-0.277,0.103-0.578,0.402-0.677,0.686c-3.69,10.592-10.824,17.72-21.412,21.423
		c-0.598,0.209-1.108,0.736-0.234,1.349c-69,0-138,0-207,0c-0.311-0.217-0.621-0.434-0.932-0.651
		c-0.023,0.217-0.045,0.434-0.068,0.651c-0.667,0-1.333,0-2,0c0.163-0.232,0.507-0.533,0.451-0.682
		c-0.105-0.277-0.405-0.575-0.69-0.674c-10.587-3.682-17.715-10.806-21.415-21.388C1.14,232.665,0.629,232.132,0,233z
		 M143.473,182.58c0-13.66,0.113-27.322-0.077-40.979c-0.05-3.585,0.716-5.012,4.641-4.835c7.315,0.33,14.662-0.088,21.982,0.177
		c3.246,0.118,4.348-1.092,4.687-4.087c1.048-9.261,2.065-18.535,3.519-27.737c0.597-3.78-0.883-4.097-3.917-4.05
		c-8.827,0.137-17.659-0.051-26.486,0.102c-3.029,0.053-4.532-0.519-4.386-4.032c0.27-6.486-0.044-12.994,0.13-19.487
		c0.313-11.654,4.839-16.119,16.606-16.463c5.326-0.155,10.663-0.136,15.991-0.007c2.566,0.062,3.947-0.323,3.868-3.458
		c-0.211-8.324-0.13-16.658-0.034-24.986c0.027-2.382-0.486-3.592-3.218-3.781c-9.478-0.657-18.956-1.342-28.453-0.853
		c-21.81,1.124-36.722,14.257-40.548,35.782c-1.908,10.736-0.841,21.611-0.83,32.417c0.004,4.073-1.277,5.036-5.085,4.893
		c-7.319-0.275-14.658-0.005-21.986-0.12c-2.543-0.04-3.973,0.288-3.913,3.434c0.186,9.658,0.144,19.324,0.018,28.984
		c-0.034,2.631,0.837,3.46,3.44,3.41c7.327-0.141,14.673,0.223,21.983-0.148c4.372-0.222,5.575,0.996,5.537,5.465
		c-0.227,26.985-0.066,53.974-0.173,80.96c-0.013,3.336,0.261,5.09,4.432,4.931c9.482-0.36,18.99-0.254,28.48-0.036
		c3.228,0.074,3.87-1.099,3.843-4.019C143.403,210.234,143.471,196.407,143.473,182.58z"/>
	<path class="st1" d="M143.472,182.58c-0.001,13.827-0.07,27.654,0.054,41.48c0.026,2.92-0.616,4.093-3.843,4.019
		c-9.49-0.218-18.999-0.324-28.48,0.036c-4.171,0.158-4.445-1.595-4.432-4.931c0.106-26.987-0.055-53.975,0.173-80.96
		c0.038-4.469-1.165-5.688-5.537-5.465c-7.311,0.372-14.656,0.007-21.983,0.148c-2.603,0.05-3.474-0.78-3.44-3.41
		c0.126-9.66,0.168-19.326-0.018-28.984c-0.06-3.147,1.37-3.474,3.913-3.434c7.328,0.115,14.666-0.156,21.986,0.12
		c3.808,0.143,5.09-0.82,5.085-4.893c-0.011-10.806-1.078-21.681,0.83-32.417c3.827-21.526,18.738-34.659,40.548-35.782
		c9.498-0.489,18.975,0.196,28.453,0.853c2.732,0.189,3.246,1.398,3.218,3.781c-0.096,8.328-0.177,16.662,0.034,24.986
		c0.079,3.135-1.302,3.52-3.868,3.458c-5.327-0.129-10.664-0.148-15.991,0.007c-11.767,0.343-16.294,4.809-16.606,16.463
		c-0.174,6.492,0.139,13.001-0.13,19.487c-0.146,3.513,1.357,4.084,4.386,4.032c8.826-0.153,17.659,0.035,26.486-0.102
		c3.033-0.047,4.514,0.27,3.917,4.05c-1.454,9.202-2.471,18.475-3.519,27.737c-0.339,2.995-1.44,4.204-4.687,4.087
		c-7.32-0.265-14.667,0.153-21.982-0.177c-3.925-0.177-4.69,1.249-4.641,4.835C143.587,155.258,143.473,168.92,143.472,182.58z"/>
</g>
</svg>