<?xml version="1.0" encoding="utf-8"?>
<!-- Generator: Adobe Illustrator 18.0.0, SVG Export Plug-In . SVG Version: 6.00 Build 0)  -->
<!DOCTYPE svg PUBLIC "-//W3C//DTD SVG 1.1//EN" "http://www.w3.org/Graphics/SVG/1.1/DTD/svg11.dtd">
<svg version="1.1" id="Capa_1" xmlns="http://www.w3.org/2000/svg" xmlns:xlink="http://www.w3.org/1999/xlink" x="0px" y="0px"
	 viewBox="0 0 960 560" enable-background="new 0 0 960 560" xml:space="preserve">
<g>
	<g>
		<path fill="#FFFFFF" d="M539.6,170.8c10.4,0,19.9,3.1,27.9,8.4l18.6-18.6l-100-100.1l-0.3-0.1c-1.7-1.5-3.9-2.5-6.3-2.5
			c-2.5,0-4.6,1-6.3,2.5l-0.1,0.1L373,160.6l30.2,30.2c-10.5,5.7-17.8,16.9-17.8,29.8c0,18.8,15.3,34,34,34
			c12.9,0,24.1-7.1,29.8-17.8l30.2,30.2l18.6-18.6c-5.3-8-8.4-17.5-8.4-27.9C489.8,193.2,512.1,170.8,539.6,170.8z"/>
	</g>
	<path fill="#FFFFFF" d="M699.9,274.4l-0.1-0.1L599.7,174.2l-30.2,30.2c-5.7-10.6-16.9-17.8-29.8-17.8c-18.8,0-34,15.3-34,34
		c0,12.9,7.1,24.1,17.8,29.8l-30.2,30.2l18.6,18.6c8-5.3,17.5-8.4,27.9-8.4c27.6,0,49.8,22.3,49.8,49.8c0,10.4-3.1,19.9-8.5,27.9
		l18.6,18.6l100.1-100.1l0.1-0.1c1.5-1.7,2.5-3.9,2.5-6.3C702.6,278.3,701.6,276.1,699.9,274.4z"/>
	<g>
		<path fill="#FFFFFF" d="M555.9,370.7c10.5-5.7,17.8-16.9,17.8-29.8c0-18.8-15.3-34-34-34c-12.9,0-24.1,7.1-29.8,17.8l-30.2-30.2
			L461,313c5.3,8,8.4,17.5,8.4,27.9c0,27.6-22.4,49.8-49.8,49.8c-10.2,0-19.9-3.1-27.9-8.5L373,400.8l100.1,100.1l0.1,0.1
			c1.7,1.5,3.9,2.5,6.3,2.5c2.5,0,4.6-1,6.3-2.5l0.1-0.1l100.1-100.1L555.9,370.7z"/>
	</g>
	<g>
		<path fill="#FFFFFF" d="M447.4,262.1c-8,5.3-17.5,8.4-27.9,8.4c-27.6,0-49.8-22.3-49.8-49.8c0-10.4,3.1-19.9,8.4-27.9l-18.6-18.6
			L259.4,274.3l-0.1,0.1c-1.5,1.7-2.7,3.9-2.7,6.3c0,2.5,1,4.8,2.7,6.3l0.1,0.1l100.1,100.1l30.2-30.2c5.7,10.5,16.9,17.8,29.8,17.8
			c18.8,0,34-15.3,34-34c0-12.9-7.1-24.1-17.8-29.8l30.2-30.2L447.4,262.1z"/>
	</g>
</g>
</svg>
