<?xml version="1.0" encoding="utf-8"?>
<!-- Generator: Adobe Illustrator 18.0.0, SVG Export Plug-In . SVG Version: 6.00 Build 0)  -->
<!DOCTYPE svg PUBLIC "-//W3C//DTD SVG 1.1//EN" "http://www.w3.org/Graphics/SVG/1.1/DTD/svg11.dtd">
<svg version="1.1" id="Capa_1" xmlns="http://www.w3.org/2000/svg" xmlns:xlink="http://www.w3.org/1999/xlink" x="0px" y="0px"
	 viewBox="0 0 400 400" enable-background="new 0 0 400 400" xml:space="preserve">
<g>
	<g>
		<path fill="#35A8E0" d="M242.6,122c7.4,0,14.2,2.2,19.9,6l13.3-13.3l-71.4-71.5l-0.2-0.1c-1.2-1.1-2.8-1.8-4.5-1.8
			c-1.8,0-3.3,0.7-4.5,1.8l-0.1,0.1l-71.5,71.5l21.6,21.6c-7.5,4.1-12.7,12.1-12.7,21.3c0,13.4,10.9,24.3,24.3,24.3
			c9.2,0,17.2-5.1,21.3-12.7l21.6,21.6l13.3-13.3c-3.8-5.7-6-12.5-6-19.9C207,138,222.9,122,242.6,122z"/>
	</g>
	<path fill="#29235C" d="M357.1,196l-0.1-0.1l-71.5-71.5L263.9,146c-4.1-7.6-12.1-12.7-21.3-12.7c-13.4,0-24.3,10.9-24.3,24.3
		c0,9.2,5.1,17.2,12.7,21.3l-21.6,21.6l13.3,13.3c5.7-3.8,12.5-6,19.9-6c19.7,0,35.6,15.9,35.6,35.6c0,7.4-2.2,14.2-6.1,19.9
		l13.3,13.3l71.5-71.5l0.1-0.1c1.1-1.2,1.8-2.8,1.8-4.5C359,198.8,358.3,197.2,357.1,196z"/>
	<g>
		<path fill="#2D2E82" d="M254.2,264.8c7.5-4.1,12.7-12.1,12.7-21.3c0-13.4-10.9-24.3-24.3-24.3c-9.2,0-17.2,5.1-21.3,12.7
			l-21.6-21.6l-13.3,13.3c3.8,5.7,6,12.5,6,19.9c0,19.7-16,35.6-35.6,35.6c-7.3,0-14.2-2.2-19.9-6.1l-13.3,13.3l71.5,71.5l0.1,0.1
			c1.2,1.1,2.8,1.8,4.5,1.8c1.8,0,3.3-0.7,4.5-1.8l0.1-0.1l71.5-71.5L254.2,264.8z"/>
	</g>
	<g>
		<path fill="#1D70B7" d="M176.7,187.2c-5.7,3.8-12.5,6-19.9,6c-19.7,0-35.6-15.9-35.6-35.6c0-7.4,2.2-14.2,6-19.9l-13.3-13.3
			l-71.5,71.5l-0.1,0.1c-1.1,1.2-1.9,2.8-1.9,4.5c0,1.8,0.7,3.4,1.9,4.5l0.1,0.1l71.5,71.5l21.6-21.6c4.1,7.5,12.1,12.7,21.3,12.7
			c13.4,0,24.3-10.9,24.3-24.3c0-9.2-5.1-17.2-12.7-21.3l21.6-21.6L176.7,187.2z"/>
	</g>
</g>
</svg>
